<?xml version="1.0" encoding="utf-8"?>
<!-- Svg Vector Icons : http://www.onlinewebfonts.com/icon -->
<!DOCTYPE svg PUBLIC "-//W3C//DTD SVG 1.1//EN" "http://www.w3.org/Graphics/SVG/1.1/DTD/svg11.dtd">
<svg version="1.1" xmlns="http://www.w3.org/2000/svg" xmlns:xlink="http://www.w3.org/1999/xlink" x="0px" y="0px" viewBox="0 0 1000 1000" enable-background="new 0 0 1000 1000" xml:space="preserve">
<metadata> Svg Vector Icons : http://www.onlinewebfonts.com/icon </metadata>
  <g><g><path d="M500,544.3c-184.1,0-338.2-54-380.3-127c-7.4,12.9-11.8,26.3-11.8,40v119.3c0,92.2,175.6,166.9,392.2,166.9c216.6,0,392.2-74.7,392.2-166.9V457.3c0-13.8-4.4-27.1-11.9-40C838.2,490.3,684.2,544.3,500,544.3z"/><path d="M500,790.8c-184.1,0-338.2-54.2-380.3-126.9c-7.4,12.8-11.8,26-11.8,39.9v119.4C107.8,915.3,283.4,990,500,990c216.6,0,392.2-74.7,392.2-166.9V703.7c0-13.8-4.4-27.1-11.9-39.9C838.2,736.6,684.2,790.8,500,790.8z"/><path d="M881.4,178.9c-7.6,67.5-175.2,121.5-381.4,121.5c-206.2,0-373.8-54-381.4-121.5c-6.7,12.3-10.8,25.1-10.8,38.2v119.3c0,92.3,175.6,166.9,392.2,166.9c216.6,0,392.2-74.6,392.2-166.9V217C892.2,203.9,888.2,191.2,881.4,178.9z"/><ellipse cx="500" cy="136.3" rx="382.1" ry="126.3"/></g><g></g><g></g><g></g><g></g><g></g><g></g><g></g><g></g><g></g><g></g><g></g><g></g><g></g><g></g><g></g></g>
</svg>